<svg xmlns="http://www.w3.org/2000/svg" version="1.1" xmlns:xlink="http://www.w3.org/1999/xlink" xmlns:svgjs="http://svgjs.dev/svgjs" width="1000" height="625" viewBox="0 0 1000 625"><g transform="matrix(1,0,0,1,0,0)"><svg viewBox="0 0 512 320" data-background-color="#28353b" preserveAspectRatio="xMidYMid meet" height="625" width="1000" xmlns="http://www.w3.org/2000/svg" xmlns:xlink="http://www.w3.org/1999/xlink"><g id="tight-bounds" transform="matrix(1,0,0,1,0,0)"><svg viewBox="0 0 512 320" height="320" width="512"><g><svg></svg></g><g><svg viewBox="0 0 512 320" height="320" width="512"><g><path xmlns="http://www.w3.org/2000/svg" d="M96 320l0-320 320 0 0 320z" fill="#ffffff" fill-rule="nonzero" stroke="none" stroke-width="1" stroke-linecap="butt" stroke-linejoin="miter" stroke-miterlimit="10" stroke-dasharray="" stroke-dashoffset="0" font-family="none" font-weight="none" font-size="none" text-anchor="none" style="mix-blend-mode: normal" data-fill-palette-color="tertiary"></path></g><g transform="matrix(1,0,0,1,173.32569245463228,80)"><svg viewBox="0 0 165.34861509073545 160" height="160" width="165.34861509073545"><g><svg viewBox="0 0 165.34861509073545 160" height="160" width="165.34861509073545"><g><svg viewBox="0 0 165.34861509073545 160" height="160" width="165.34861509073545"><g id="textblocktransform"><svg viewBox="0 0 165.34861509073545 160" height="160" width="165.34861509073545" id="textblock"><g><svg viewBox="0 0 165.34861509073545 160" height="160" width="165.34861509073545"><g transform="matrix(1,0,0,1,0,0)"><svg width="165.34861509073545" viewBox="0.3400000035762787 -24.950000762939453 26.420000076293945 25.560001373291016" height="160" data-palette-color="#28353b"><path d="M26.76-24.95L26.76-24.29Q25.98-24.17 25.39-23.85 24.8-23.54 24.37-23.07 23.93-22.61 23.61-22.01 23.29-21.41 23-20.7L23-20.7 14.31 0.61 13.65 0.61 4.3-20.95Q3.96-21.73 3.64-22.31 3.32-22.9 2.89-23.32 2.47-23.73 1.86-23.96 1.25-24.19 0.34-24.29L0.34-24.29 0.34-24.95 10.5-24.95 10.5-24.29Q10.11-24.27 9.63-24.19 9.16-24.12 8.73-23.94 8.3-23.75 8.02-23.43 7.74-23.1 7.74-22.56L7.74-22.56Q7.74-21.88 7.98-21.22 8.23-20.56 8.59-19.7L8.59-19.7 14.94-5.1 20.85-19.6Q20.95-19.85 21.11-20.23 21.26-20.61 21.39-21.01 21.51-21.41 21.61-21.79 21.7-22.17 21.7-22.46L21.7-22.46Q21.7-22.95 21.42-23.27 21.14-23.58 20.74-23.79 20.34-24 19.87-24.11 19.41-24.22 19.04-24.29L19.04-24.29 19.04-24.95 26.76-24.95Z" opacity="1" transform="matrix(1,0,0,1,0,0)" fill="#000000" class="undefined-text-0" data-fill-palette-color="quaternary" id="text-0"></path></svg></g></svg></g></svg></g></svg></g></svg></g></svg></g></svg></g><defs></defs></svg><rect width="512" height="320" fill="none" stroke="none" visibility="hidden"></rect></g></svg></g></svg>